<svg xmlns="http://www.w3.org/2000/svg" width="1440" height="602"><path d="M-107.755 165.832s83.126 87.888 120.658 189.513c32.832 88.895 156.531 254.51 342.904 197.548 186.373-56.964 204.06-113.301 370.712-52.939 166.652 60.363 222.255 149.92 412.275 71.124 190.02-78.795 351.326-10.476 351.326-10.476l28.792-94.176s-83.655-32.146-197.21-189.217c-113.555-157.072-225.23-183.155-289.499-171.647-52.83 9.46-221.097 64.394-359.828 32.737-130.176-29.707-190.258-67.96-273.289-111.789-103.36-54.559-168.214-9.074-233.136 13.43C101.028 62.445-44.089 53.616-67.284 54.638l-40.47 111.194z" fill="#1D98FF" fill-rule="evenodd"/></svg>