<?xml version="1.0" encoding="iso-8859-1"?>
<!-- Generator: Adobe Illustrator 19.0.0, SVG Export Plug-In . SVG Version: 6.00 Build 0)  -->
<svg version="1.1" id="Capa_1" xmlns="http://www.w3.org/2000/svg" xmlns:xlink="http://www.w3.org/1999/xlink" x="0px" y="0px"
	 viewBox="0 0 58.662 58.662" style="enable-background:new 0 0 58.662 58.662;" xml:space="preserve">
<g>
	<g>
		<path d="M58.218,43.251c-0.544-1.038-1.503-1.725-2.631-1.882c-0.177-0.025-0.358-0.038-0.543-0.038h-4.383h-7h-4.794
			c-1.858-0.005-3.207-0.557-4.484-1.871L55.496,7.038c0.818-1.257,0.661-2.886-0.375-3.873c-0.633-0.604-1.496-0.904-2.352-0.821
			c-0.862,0.081-1.646,0.53-2.146,1.227l-5.207,7.131l-0.001,0.001l-6.166,8.444c0,0,0,0.001-0.001,0.001l-9.915,13.579
			L19.022,18.605c0,0,0,0,0-0.001L14.47,12.37L8.049,3.577c-0.505-0.703-1.288-1.152-2.15-1.233C5.041,2.265,4.18,2.563,3.547,3.165
			c0,0.001,0,0.001,0,0.001C2.511,4.153,2.354,5.781,3.172,7.039l21.116,32.428c-1.258,1.308-2.585,1.858-4.424,1.864h-4.203h-7
			H3.684c-1.544,0-2.643,0.597-3.265,1.772c-0.572,1.083-0.558,2.453,0.037,3.667l1.761,3.593c0.653,1.306,1.543,1.968,2.647,1.968
			h1.898c0.465,2.279,2.484,4,4.899,4h10c2.757,0,5-2.243,5-5c0-0.452-0.08-0.882-0.193-1.299c1.121-0.796,2.077-1.748,2.853-2.843
			c2.123,3.22,5.683,5.142,9.543,5.142h2.797h7h4.762c1.185,0,2.458-0.828,3.026-1.966l1.803-3.581
			C58.81,45.677,58.797,44.356,58.218,43.251z M52.244,4.743c0.167-0.232,0.426-0.381,0.712-0.408
			c0.295-0.026,0.569,0.072,0.786,0.278c0.333,0.317,0.366,0.892,0.078,1.334l-4.232,6.499l-1.958-1.384L52.244,4.743z
			 M46.451,12.677l2.045,1.446l-4.518,6.938l-2.486-1.593L46.451,12.677z M40.311,21.086l2.576,1.651L33.06,37.829l-2.487-3.406
			L40.311,21.086z M4.849,5.948C4.56,5.505,4.593,4.932,4.926,4.613c0.217-0.206,0.49-0.309,0.786-0.278
			C5.997,4.363,6.257,4.511,6.429,4.75l4.153,5.688l-1.856,1.465L4.849,5.948z M11.825,16.662l-2.003-3.076l1.94-1.532l4.364,5.976
			l0.673,0.921l-2.41,1.647L11.825,16.662z M14.859,43.331l0.667,3h-3.865c-0.249,0-0.495,0.027-0.741,0.066
			c-0.07,0.01-0.14,0.017-0.209,0.03c-0.037,0.007-0.074,0.015-0.111,0.023l-0.693-3.119H14.859z M8.024,47.922
			c-0.127,0.136-0.243,0.28-0.355,0.43c-0.07,0.094-0.143,0.185-0.207,0.284c-0.11,0.17-0.201,0.35-0.29,0.534
			c-0.045,0.092-0.097,0.179-0.136,0.274c-0.11,0.267-0.197,0.545-0.259,0.833c-0.004,0.018-0.012,0.034-0.016,0.052
			c0,0.001-0.001,0.002-0.001,0.003H4.864c-0.105,0-0.427,0-0.855-0.855L2.252,45.89c-0.314-0.641-0.338-1.333-0.064-1.851
			c0.194-0.368,0.51-0.708,1.496-0.708h4.175l0.88,3.961C8.728,47.3,8.718,47.31,8.706,47.319c-0.147,0.109-0.287,0.224-0.422,0.348
			C8.195,47.75,8.108,47.833,8.024,47.922z M21.661,54.331h-10c-1.654,0-3-1.346-3-3c0-1.162,0.671-2.161,1.64-2.659
			c0.007-0.003,0.015-0.002,0.022-0.005c0.44-0.223,0.891-0.336,1.338-0.336h5.111h4.889c0.178,0,0.351,0.023,0.521,0.053
			c0.067,0.012,0.133,0.027,0.198,0.044c0.093,0.023,0.183,0.053,0.273,0.085c0.336,0.121,0.65,0.297,0.923,0.529
			c0.01,0.008,0.02,0.016,0.029,0.024c0.316,0.273,0.578,0.613,0.763,1.006c0.005,0.01,0.015,0.017,0.02,0.027
			c0.171,0.377,0.272,0.792,0.272,1.233C24.661,52.986,23.315,54.331,21.661,54.331z M27.917,45.726
			c-0.626,0.963-1.415,1.804-2.351,2.509c-0.049-0.061-0.104-0.116-0.155-0.174c-0.144-0.165-0.297-0.32-0.462-0.465
			c-0.096-0.085-0.193-0.167-0.295-0.244c-0.107-0.081-0.211-0.161-0.325-0.233c-0.186-0.119-0.381-0.222-0.581-0.316
			c-0.098-0.045-0.195-0.087-0.296-0.126c-0.234-0.092-0.474-0.169-0.721-0.224c-0.06-0.013-0.121-0.021-0.181-0.032
			c-0.292-0.054-0.588-0.09-0.89-0.09h-4.087l-0.667-3h2.96c2.228-0.007,3.98-0.679,5.536-2.151l2.737,4.203L27.917,45.726z
			 M40.859,50.331h-1.995c-3.203,0-6.158-1.603-7.906-4.286l-0.785-1.206c0-0.001-0.001-0.002-0.001-0.003l-3.79-5.82l-0.001-0.001
			L15.48,22.275l2.498-1.708l10.548,14.445c0,0,0,0,0,0.001l3.246,4.445c1.975,2.705,4.095,3.863,7.092,3.873h3.55L40.859,50.331z
			 M47.859,50.331h-4.951l1.556-7h4.951L47.859,50.331z M56.466,45.886l-1.804,3.584c-0.226,0.45-0.815,0.861-1.238,0.861h-3.516
			l1.556-7h3.581c0.09,0,0.178,0.007,0.265,0.019c0.66,0.093,0.996,0.56,1.138,0.829C56.727,44.714,56.734,45.352,56.466,45.886z"/>
	</g>
</g>
<g>
</g>
<g>
</g>
<g>
</g>
<g>
</g>
<g>
</g>
<g>
</g>
<g>
</g>
<g>
</g>
<g>
</g>
<g>
</g>
<g>
</g>
<g>
</g>
<g>
</g>
<g>
</g>
<g>
</g>
</svg>
