<?xml version="1.0" encoding="iso-8859-1"?>
<!-- Generator: Adobe Illustrator 18.0.0, SVG Export Plug-In . SVG Version: 6.00 Build 0)  -->
<!DOCTYPE svg PUBLIC "-//W3C//DTD SVG 1.1//EN" "http://www.w3.org/Graphics/SVG/1.1/DTD/svg11.dtd">
<svg version="1.1" id="Capa_1" xmlns="http://www.w3.org/2000/svg" xmlns:xlink="http://www.w3.org/1999/xlink" x="0px" y="0px"
	 viewBox="0 0 297 297" style="enable-background:new 0 0 297 297;" xml:space="preserve">
<g>
	<path d="M231.876,203.755c-23.395,0-42.428,19.034-42.428,42.428s19.034,42.428,42.428,42.428s42.428-19.034,42.428-42.428
		S255.271,203.755,231.876,203.755z M231.876,268.878c-12.514,0-22.694-10.18-22.694-22.694s10.18-22.694,22.694-22.694
		c12.514,0,22.694,10.18,22.694,22.694S244.39,268.878,231.876,268.878z"/>
	<path d="M284.342,61.49l-48.833-48.833c-8.663-8.663-20.411-13.127-33.077-12.616c-13.833,0.575-27.066,7.167-36.305,18.085
		l-45.464,53.73c-7.647,9.037-12.766,19.54-16.487,30.326c-8.065,23.377-36.151,92.074-36.151,92.074L7.191,255.091
		C2.553,259.727,0,265.892,0,272.45c0,6.557,2.553,12.721,7.19,17.358l0.001,0.001c4.637,4.637,10.801,7.19,17.358,7.19
		c6.558,0,12.723-2.553,17.359-7.19l60.836-60.836c0,0,68.697-28.086,92.074-36.151c10.785-3.721,21.288-8.84,30.325-16.487
		l53.731-45.464c10.917-9.239,17.509-22.472,18.084-36.305C297.485,81.9,293.004,70.153,284.342,61.49z M277.241,93.748
		c-0.094,2.258-0.468,4.492-1.085,6.666l-14.836-14.836l9.586-9.586C275.275,80.655,277.524,86.927,277.241,93.748z
		 M237.465,140.059l-15.313-15.313l11.212-11.212l16.248,16.248L237.465,140.059z M213.78,116.374l-12.392-12.392l11.212-11.212
		l12.392,12.392L213.78,116.374z M99.63,208.994l-11.625-11.625l17.864-45.498c3.488,8.864,8.714,16.931,15.522,23.738
		s14.875,12.033,23.738,15.522L99.63,208.994z M131.57,90.073l12.729,12.729l-11.213,11.213l-9.114-9.114
		C125.795,99.789,128.328,94.799,131.57,90.073z M149.266,68.603l14.616,14.616L152.67,94.43l-13.681-13.681L149.266,68.603z
		 M167.218,47.387l16.247,16.247l-11.212,11.212L156.94,59.534L167.218,47.387z M181.192,30.873
		c1.341-1.584,2.816-3.014,4.392-4.288l17.466,17.466l-11.212,11.212l-16.945-16.945L181.192,30.873z M156.03,174.125
		c-5.833-1.819-11.333-4.663-16.246-8.539l14.064-14.064l12.392,12.393L156.03,174.125z M174.613,172.285l3.9,3.9
		c-2.722,0.304-5.44,0.418-8.135,0.334L174.613,172.285z M131.412,157.214c-3.876-4.913-6.719-10.413-8.538-16.245l10.211-10.211
		l12.392,12.392L131.412,157.214z M141.457,122.386l11.213-11.213l12.392,12.392l-11.213,11.213L141.457,122.386z M161.042,102.802
		l11.212-11.212l12.392,12.392l-11.212,11.212L161.042,102.802z M180.625,83.219l11.212-11.212l12.392,12.392L193.017,95.61
		L180.625,83.219z M200.209,63.635l11.212-11.212l12.392,12.392l-11.212,11.212L200.209,63.635z M124.714,122.386l-4.235,4.235
		c-0.084-2.695,0.03-5.413,0.335-8.135L124.714,122.386z M192.098,173.027l-9.114-9.114l11.213-11.213l12.729,12.729
		C202.2,168.671,197.21,171.204,192.098,173.027z M174.613,155.542l-12.392-12.392l11.213-11.213l12.392,12.392L174.613,155.542z
		 M181.805,123.565l11.212-11.212l12.392,12.392l-11.212,11.212L181.805,123.565z M220.972,84.398l11.212-11.212l12.392,12.392
		L233.364,96.79L220.972,84.398z M240.556,64.814l9.601-9.601l12.392,12.392l-9.601,9.601L240.556,64.814z M241.785,46.842
		l-9.601,9.601l-12.392-12.392l9.601-9.601L241.785,46.842z M203.251,19.758c0.384-0.016,0.768-0.024,1.149-0.024
		c6.376,0,12.208,2.235,16.609,6.358l-9.587,9.587l-14.836-14.836C198.759,20.227,200.993,19.852,203.251,19.758z M27.953,275.855
		c-1.227,1.227-2.659,1.41-3.404,1.41s-2.178-0.183-3.404-1.41c0-0.001,0-0.001-0.001-0.001c-1.227-1.227-1.41-2.659-1.41-3.404
		s0.183-2.178,1.411-3.404l55.313-55.313l6.809,6.809L27.953,275.855z M216.25,158.01l-13.681-13.681l11.212-11.212l14.616,14.616
		L216.25,158.01z M266.127,115.807l-7.445,6.3l-16.946-16.946l11.212-11.212l17.466,17.466
		C269.14,112.991,267.711,114.467,266.127,115.807z"/>
</g>
<g>
</g>
<g>
</g>
<g>
</g>
<g>
</g>
<g>
</g>
<g>
</g>
<g>
</g>
<g>
</g>
<g>
</g>
<g>
</g>
<g>
</g>
<g>
</g>
<g>
</g>
<g>
</g>
<g>
</g>
</svg>
